<mxfile host="app.diagrams.net" modified="2023-01-23T12:56:23.310Z" agent="5.0 (Macintosh; Intel Mac OS X 10_15_7) AppleWebKit/537.36 (KHTML, like Gecko) Chrome/109.0.0.0 Safari/537.36" etag="nOJ4DV9W7ZFhvXWe03VO" version="20.8.10" type="github">
  <diagram name="Sayfa -1" id="sVIzBuoFMxo-8dDYE1Tt">
    <mxGraphModel dx="954" dy="528" grid="1" gridSize="10" guides="1" tooltips="1" connect="1" arrows="1" fold="1" page="1" pageScale="1" pageWidth="827" pageHeight="1169" math="0" shadow="0">
      <root>
        <mxCell id="0" />
        <mxCell id="1" parent="0" />
        <mxCell id="ZB1YOYJqONEX7QuKxskK-1" value="Lessons" style="swimlane;childLayout=stackLayout;horizontal=1;startSize=30;horizontalStack=0;rounded=1;fontSize=14;fontStyle=0;strokeWidth=2;resizeParent=0;resizeLast=1;shadow=0;dashed=0;align=center;" vertex="1" parent="1">
          <mxGeometry x="440" y="200" width="160" height="120" as="geometry" />
        </mxCell>
        <mxCell id="ZB1YOYJqONEX7QuKxskK-2" value="+Attribute1&#xa;+Attribute2&#xa;+Attribute3" style="align=left;strokeColor=none;fillColor=none;spacingLeft=4;fontSize=12;verticalAlign=top;resizable=0;rotatable=0;part=1;" vertex="1" parent="ZB1YOYJqONEX7QuKxskK-1">
          <mxGeometry y="30" width="160" height="90" as="geometry" />
        </mxCell>
        <mxCell id="ZB1YOYJqONEX7QuKxskK-3" value="Students" style="swimlane;childLayout=stackLayout;horizontal=1;startSize=30;horizontalStack=0;rounded=1;fontSize=14;fontStyle=0;strokeWidth=2;resizeParent=0;resizeLast=1;shadow=0;dashed=0;align=center;" vertex="1" parent="1">
          <mxGeometry x="130" y="200" width="160" height="120" as="geometry" />
        </mxCell>
        <mxCell id="ZB1YOYJqONEX7QuKxskK-4" value="+Attribute1&#xa;+Attribute2&#xa;+Attribute3" style="align=left;strokeColor=none;fillColor=none;spacingLeft=4;fontSize=12;verticalAlign=top;resizable=0;rotatable=0;part=1;" vertex="1" parent="ZB1YOYJqONEX7QuKxskK-3">
          <mxGeometry y="30" width="160" height="90" as="geometry" />
        </mxCell>
      </root>
    </mxGraphModel>
  </diagram>
</mxfile>
